<svg width="92" height="62" viewBox="0 0 92 62" fill="none" xmlns="http://www.w3.org/2000/svg">
<path d="M43.2974 39.0515C43.2974 37.8739 43.5047 36.7487 43.9452 35.7019C44.3599 34.6552 45.0078 33.6869 45.8111 32.7972C46.6145 31.9859 47.5215 31.3579 48.5322 30.913C49.5429 30.4681 50.6314 30.2588 51.7716 30.2588C52.9119 30.2588 53.9744 30.4681 55.011 30.913C56.0476 31.3579 56.9287 31.9859 57.7321 32.7972C58.5355 33.6346 59.1575 34.5767 59.5721 35.6496C59.9867 36.7225 60.1941 37.8478 60.1941 39.0515C60.1941 40.2291 59.9867 41.3544 59.5721 42.4273C59.1575 43.5002 58.5355 44.4423 57.7321 45.2797C56.9287 46.1171 56.0217 46.7452 55.011 47.1639C54.0003 47.5826 52.9119 47.8181 51.7716 47.8181C50.6314 47.8181 49.5688 47.6087 48.5322 47.1639C47.5215 46.7452 46.6145 46.091 45.8111 45.2797C44.9818 44.4161 44.3599 43.4479 43.9452 42.4011C43.5047 41.3282 43.2974 40.203 43.2974 39.0515ZM44.8264 39.0254C44.8264 41.0927 45.5002 42.846 46.8477 44.2853C48.1953 45.7246 49.828 46.4311 51.7716 46.4311C53.6894 46.4311 55.322 45.6984 56.6696 44.2591C58.0172 42.8198 58.6651 41.0665 58.6651 38.9992C58.6651 36.9057 57.9913 35.1524 56.6696 33.7392C55.322 32.3 53.6894 31.5934 51.7716 31.5934C49.828 31.5934 48.1953 32.3 46.8477 33.7392C45.5002 35.1785 44.8264 36.9319 44.8264 39.0254Z" fill="#6D2080"/>
<path d="M61.5195 30.6163H63.0746L68.5176 45.3906C68.6212 45.6778 68.699 45.8605 68.8027 45.991C68.9063 46.1215 69.01 46.1737 69.1137 46.1737C69.2433 46.1737 69.347 46.0954 69.4765 45.9649C69.5802 45.8344 69.6839 45.6517 69.7617 45.3906L75.2046 30.5902H76.7597L71.0057 46.0954C70.7984 46.7219 70.5392 47.1656 70.2541 47.4267C69.969 47.6877 69.6061 47.8182 69.1655 47.8182C68.7249 47.8182 68.3361 47.6877 68.051 47.4267C67.7659 47.1656 67.5067 46.7219 67.2994 46.0954L61.5195 30.6163Z" fill="#6D2080"/>
<path d="M91.9999 47.7921H90.4448L85.0019 33.0178C84.8982 32.7307 84.8205 32.5479 84.7168 32.4174C84.6131 32.2869 84.5094 32.2347 84.4058 32.2347C84.2762 32.2347 84.1725 32.313 84.0429 32.4435C83.9392 32.574 83.8356 32.7568 83.7578 33.0178L78.3149 47.8182H76.7598L82.5137 32.313C82.7211 31.6865 82.9802 31.2428 83.2653 30.9818C83.5504 30.7207 83.9133 30.5902 84.3539 30.5902C84.7945 30.5902 85.1833 30.7207 85.4684 30.9818C85.7535 31.2428 86.0127 31.6865 86.2201 32.313L91.9999 47.7921Z" fill="#6D2080"/>
<path d="M4.20298 36.7198C2.79199 44.2729 9.42397 53.1603 15.852 56.2889C18.0195 57.3438 20.755 58.2301 22.9751 58.4424C27.2063 58.8471 31.5397 57.5592 35.0149 55.7698C49.7581 47.4871 48.0764 25.2286 47.8047 23.2658C46.6288 14.5912 41.9968 2.7563 36.6413 2.13246C31.3927 1.50402 31.0541 12.325 19.3511 24.1409C10.675 32.8651 5.35765 30.56 4.20298 36.7198Z" fill="#6D2080"/>
<path opacity="0.85" d="M7.03576 45.7879C7.75424 51.8895 14.6086 56.4349 20.0221 57.9401C28.1964 60.2014 35.7716 56.3356 40.316 51.7938C51.9952 40.0584 44.4623 20.2457 43.875 18.7951C40.416 10.5904 32.8657 1.52448 27.6888 2.4746C22.719 3.38672 25.448 13.445 18.0945 27.6106C12.6603 38.0924 6.33637 39.7904 7.03576 45.7879Z" fill="#00FF9E"/>
<path d="M18.1224 36.801V47.6931H16.9185V37.272C16.9185 35.1215 17.4837 33.4277 18.5736 32.227L18.5736 32.227L18.5745 32.226C19.663 31.0013 21.1842 30.3838 23.1026 30.3838C24.2503 30.3838 25.2914 30.6665 26.1521 31.2023L26.1521 31.2023L26.1535 31.2032C27.0395 31.7389 27.779 32.5584 28.4206 33.6709L28.5268 33.8549L28.6361 33.6727C29.3035 32.5602 30.0692 31.7396 30.9563 31.2032C31.8449 30.6658 32.8349 30.3838 33.9812 30.3838C35.8987 30.3838 37.395 31.0007 38.5102 32.2271C39.6265 33.4544 40.1913 35.1224 40.1913 37.272V47.6931H38.9614V36.801C38.9614 35.2326 38.5125 33.9438 37.6041 32.9741C36.6951 31.9774 35.5179 31.4946 34.0591 31.4946C32.6008 31.4946 31.3972 31.977 30.4877 32.9746C29.5806 33.9695 29.1309 35.2312 29.1309 36.801V47.6931H27.9269V36.801C27.9269 35.2326 27.478 33.9438 26.5696 32.974C25.6606 31.9774 24.4834 31.4946 23.0247 31.4946C21.5908 31.4946 20.4145 31.978 19.4804 32.9733L19.4804 32.9733L19.4792 32.9746C18.5721 33.9695 18.1224 35.2312 18.1224 36.801Z" fill="white" stroke="white" stroke-width="0.25"/>
</svg>
